<svg xmlns="http://www.w3.org/2000/svg" viewBox="0 0 512 512">
  <defs>
    <style>
      .cls-1 {
        fill: #e1c3ff;
      }

      .cls-2 {
        fill: #cd9af3;
      }

      .cls-3 {
        fill: #ff4957;
      }

      .cls-4 {
        fill: #f22738;
      }

      .cls-5 {
        fill: #f6edff;
      }

      .cls-6 {
        fill: #e7ceff;
      }

      .cls-7 {
        fill: #5f7bce;
      }

      .cls-8 {
        fill: #2c50bd;
      }

      .cls-9 {
        fill: #ff747f;
      }

      .cls-10 {
        fill: #00c76e;
      }

      .cls-11 {
        fill: #00aa6e;
      }

      .cls-12 {
        fill: #56da9f;
      }

      .cls-13 {
        fill: #19e77c;
      }

      .cls-14 {
        fill: #88f3bc;
      }

      .cls-15 {
        fill: #d7e816;
      }

      .cls-16 {
        fill: #f1f7ae;
      }

      .cls-17 {
        fill: #c2d521;
      }

      .cls-18 {
        fill: #b9c600;
      }
    </style>
  </defs>
  <title>E Commerce_512px</title>
  <g id="Property_Real_Estate" data-name="Property Real Estate">
    <g>
      <g>
        <g>
          <rect class="cls-1" x="64" y="106.66667" width="384" height="256" rx="42.66667" ry="42.66667"/>
          <rect class="cls-2" x="298.66667" y="234.66667" width="149.33333" height="42.66667" rx="21.33331" ry="21.33331"/>
          <rect class="cls-3" x="21.33333" y="64" width="469.33333" height="170.66667" rx="42.66667" ry="42.66667"/>
          <rect class="cls-4" x="64" y="128" width="42.66667" height="21.33333" rx="10.66666" ry="10.66666"/>
          <rect class="cls-4" x="298.66667" y="85.33333" width="42.66667" height="21.33333" rx="10.66666" ry="10.66666"/>
          <rect class="cls-4" x="405.33333" y="128" width="42.66667" height="21.33333" rx="10.66666" ry="10.66666"/>
          <rect class="cls-4" x="341.33333" y="128" width="42.66667" height="21.33333" rx="10.66666" ry="10.66666"/>
          <rect class="cls-4" x="426.66667" y="170.66667" width="42.66667" height="21.33333" rx="10.66666" ry="10.66666"/>
          <rect class="cls-4" x="362.66667" y="85.33333" width="42.66667" height="21.33333" rx="10.66666" ry="10.66666"/>
          <rect class="cls-4" x="426.66667" y="85.33333" width="42.66667" height="21.33333" rx="10.66666" ry="10.66666"/>
          <path class="cls-5" d="M307.50322,158.16989,222.16989,72.83656a42.66667,42.66667,0,0,0-60.33978,0L76.49678,158.16989A42.66668,42.66668,0,0,0,64,188.33978V320a42.66667,42.66667,0,0,0,42.66667,42.66667H277.33333A42.66667,42.66667,0,0,0,320,320V188.33978A42.66668,42.66668,0,0,0,307.50322,158.16989Z"/>
          <path class="cls-6" d="M313.7513,164.418,212.91276,63.57812a21.33379,21.33379,0,0,0-34.17838,5.569l-1.21745,2.4427c-.07162.14454-.07292.30339-.14063.44792A14.92454,14.92454,0,0,0,160,74.66667l-91.582,91.582A15.08494,15.08494,0,1,0,89.7513,187.582s48.46555-48.34462,73.57767-73.33694a25.71183,25.71183,0,0,1,36.37362.12416L249.7513,164.418A21.33231,21.33231,0,0,1,256,179.5026V192a21.33333,21.33333,0,0,1-21.33333,21.33333h-64a21.33333,21.33333,0,1,0,0,42.66667H224a32,32,0,0,1,0,64H213.33333a21.33333,21.33333,0,0,0,0,42.66667h64A42.66667,42.66667,0,0,0,320,320V179.5038A21.33472,21.33472,0,0,0,313.7513,164.418Z"/>
          <path class="cls-7" d="M192,234.66667H192a42.66662,42.66662,0,0,1,42.66662,42.66662v85.33338a0,0,0,0,1,0,0H149.33333a0,0,0,0,1,0,0V277.33329A42.66662,42.66662,0,0,1,192,234.66667Z"/>
          <rect class="cls-8" x="149.33333" y="277.33333" width="21.33333" height="85.33333" rx="10.66666" ry="10.66666"/>
          <rect class="cls-7" x="85.33333" y="234.66667" width="42.66667" height="85.33333" rx="21.33331" ry="21.33331"/>
          <rect class="cls-8" x="85.33333" y="256" width="21.33333" height="42.66667" rx="10.66666" ry="10.66666"/>
          <rect class="cls-7" x="256" y="234.66667" width="42.66667" height="85.33333" rx="21.33331" ry="21.33331"/>
          <rect class="cls-7" x="362.66667" y="234.66667" width="42.66667" height="106.66667" rx="21.33331" ry="21.33331"/>
          <rect class="cls-8" x="149.33333" y="170.66667" width="85.33333" height="21.33333" rx="10.66666" ry="10.66666"/>
        </g>
        <path class="cls-9" d="M32,202.66666l0,0a15.08493,15.08493,0,0,0,21.33331,0L192,64,330.66668,202.66668a15.08493,15.08493,0,0,0,21.33331,0l0,0a15.08494,15.08494,0,0,0,0-21.33332L228.41826,57.7516A51.50316,51.50316,0,0,0,192,42.66667h0A51.50316,51.50316,0,0,0,155.58174,57.7516L32,181.33334A15.08494,15.08494,0,0,0,32,202.66666Z"/>
      </g>
      <rect class="cls-4" x="42.66667" y="106.66667" width="42.66667" height="21.33333" rx="10.66666" ry="10.66666"/>
      <circle class="cls-8" cx="384" cy="277.33333" r="21.33333"/>
      <rect class="cls-8" x="256" y="277.33333" width="21.33333" height="42.66667" rx="10.66666" ry="10.66666"/>
      <g>
        <path class="cls-10" d="M458.66667,277.33333a31.90175,31.90175,0,0,0-30.10026,21.52474c-.64323-.02864-1.2487-.1914-1.89974-.1914-30.4154,0-53.39851,31.82475-37.46149,63.99485C395.97289,376.32267,410.95808,384,426.2037,384H448a42.66666,42.66666,0,0,0,42.66667-42.66666v-32A31.99993,31.99993,0,0,0,458.66667,277.33333Z"/>
        <rect class="cls-11" x="405.33333" y="341.33333" width="64" height="42.66667" rx="21.33331" ry="21.33331"/>
        <path class="cls-12" d="M458.66667,277.33333a31.90175,31.90175,0,0,0-30.10026,21.52474h0l-1.03-.11816a6.9142,6.9142,0,0,0-.75781-.07162h-.002l-.02539-.00065h-.0026l-.02474-.00065h-.00391l-.02474-.00032h-.11653l-.08334.00032h-.00521l-.082.00033h-.00586l-.08073.00065h-.00781l-.07877.001h-.00912l-.07877.001h-.00847l-.08008.001h-.00716l-.07877.0013h-.00912l-.07747.00163h-.01042l-.07812.00163h-.00912l-.07812.00162-.00912.00033-.07747.00163-.01042.00032-.07682.002-.01042.00032-.07682.00195-.01042.00033-.07552.00228-.013.00032-.07487.00228-.01172.00065-.07487.00228-.01237.00065-.07552.00261-.01107.00032-.07552.00293-.01237.00033-.07356.00293-.01433.00065-.07357.00293-.013.00065-.07421.00293-.01237.00065-.07422.00358-.01237.00033-.07487.00358-.01172.00065-.07617.00358-.00912.00065-.07682.00391-.01042.00065-.07682.0039-.00912.00065-.07682.00424-.01107.00065-.07682.00423-.00781.00065-.07487.00423-.013.001-.07162.00423-.01432.001-.071.00455-.01433.001-.07356.00456-.00977.00065-.07487.00521-.01172.00065-.07422.00521-.01237.001-.07031.00489-.01758.0013-.07161.00521-.01367.001-.06966.00521-.01823.00163-.06836.00521-.01758.0013-.06836.00553-.01758.00131-.069.00585-.01758.00131-.06771.00553-.01823.00163-.0677.00586-.01888.00162-.06641.00586-.02018.00163-.06641.00619-.01953.00162-.06445.00586-.02344.00228-.06185.00586-.02409.00228-.06185.00586-.02409.00228-.0638.00618-.02018.002-.0651.00651-.02084.00228-.0651.00651-.02083.00227-.06381.00652-.02278.00227-.06315.00684-.02214.00228-.06315.00683-.02344.00261-.0625.00683-.02278.00261-.05925.00651-.02669.00293-.06315.00749-.01888.002-.0612.00716-.02669.00326-.0586.00683-.02539.00293-.054.00651-.03321.00391-.05469.00683-.02669.00326-.054.00683-.03451.00424-.05013.00618-.03385.00456-.04818.00618-.03841.00489-.04883.00618-.0293.00391-.05534.00748-.0319.00391-.05273.00716-.02865.00391-.05338.00716-.03776.00521-.04753.00683-.0293.00391-.054.00781-.03581.00489-.04948.00716-.03125.00423-.05273.00781-.03256.00456-.05338.00781-.0306.00456-.054.00814-.03125.00455-.05273.00814-.0319.00456-.05143.00814-.03451.00521-.05013.00781-.0332.00521-.05078.00781-.03581.00553-.04818.00782-.03646.00585-.03906.00619-.04687.00749-.04688.00781-.03516.00553-.04231.00716-.04362.00717-.03321.00553-.05143.00846-.0319.00554-.05273.00911-.0293.00488-.054.00912-.03125.00553-.054.00944-.0267.00489-.05794.01009-.02474.00423-.06055.01074-.02213.00423-.0599.01074-.02539.00456-.0612.01107-.02018.00391-.0638.01171-.01953.00359-.06511.012-.01953.00358-.06185.01172-.02278.00423-.06315.012-.01953.0039-.06511.01237-.01758.00358-.06836.01335-.01432.0026-.06575.013-.02019.00391-.06445.013-.01823.00358-.06771.01367-.015.00293-.07357.015-.00846.00162-.07357.0153-.01107.00228-.07812.016-.00391.001a42.704,42.704,0,0,0-33.46094,35.52995v.00163c-.0039.02832-.00781.055-.01237.08365v.002l-.01171.08333-.00066.0026-.01171.083-.00066.00261c-.026.18587-.05078.37076-.07421.55729l-.00066.00358-.00976.082-.00065.00521c-.00391.027-.00716.05273-.01042.07975l-.00065.00912c-.00325.02506-.00651.0498-.00911.07519l-.002.0127-.00846.07259-.0013.01334c-.00326.02312-.00586.04688-.00847.07032l-.002.01725-.00781.06706-.002.01855-.00781.06608-.00195.01953c-.00261.02181-.00521.043-.00716.06446l-.00261.02181-.00716.06282-.002.02214c-.00261.02181-.00521.04459-.00716.0664l-.002.01823-.00651.06087-.0026.02572-.00586.05762-.00325.027-.00391.04134-.00391.03939-.00455.04654-.00261.02572-.00586.05957-.0026.027-.00586.05827-.00195.02376-.00586.06152-.00261.026c-.0013.01823-.00325.04134-.00521.05924l-.00195.02507-.00586.06087-.00195.02474-.00586.06185-.00195.02246c-.00131.02018-.00326.04069-.00521.06054l-.002.02865c-.00195.01823-.00325.03776-.00455.056l-.00261.02962-.00456.05339-.0026.03255c-.0013.01823-.0026.03711-.00456.05534l-.002.0293-.00391.05208-.00325.03516-.00326.04687-.0026.03841-.00326.03972-.00325.04752-.0026.03581c-.00131.0166-.00261.0319-.00326.04883-.0013.01074-.00195.02636-.0026.03711l-.00391.05078-.00195.0345-.00391.05111-.002.0345c-.00131.01791-.00261.03484-.00326.05241l-.002.03158c-.0013.0179-.00261.0345-.00326.05208l-.0026.03353c-.00065.01856-.002.03678-.00326.05534l-.0013.02767-.00325.0498-.002.03744-.0026.0485-.00195.03613c-.00131.015-.002.0306-.00261.04558l-.0026.03971-.002.0485-.00195.03223-.0026.05338-.0013.029-.00326.05729-.0013.02409c-.00065.0205-.0013.04069-.00261.06087l-.0013.02539-.0026.06152-.0013.02409c-.00066.02051-.00131.04134-.00261.06185l-.00065.02539c-.0013.02018-.00195.03939-.0026.0599l-.00131.027-.00195.05762-.0013.0293-.00195.06022-.00131.02344-.00195.06282-.00065.02409-.002.0625-.00131.02344-.002.06282-.00065.02442-.0013.05859-.00065.027-.002.05762-.00065.02832-.0013.054-.00065.03191c-.00065.0179-.0013.03515-.0013.05306l-.00065.03222-.00131.05567-.00065.02474c0,.02148-.00065.042-.0013.06347v.01791l-.0013.06836v.01822c-.00065.02247-.0013.0446-.0013.06706v.02084l-.0013.0651v.02148c-.00066.02246-.00066.0433-.00066.06576l-.00065.02116c0,.02148,0,.04264-.00065.06445v.02311c0,.02181,0,.043-.00065.06446v.08854L384,341.15365v.34375c.00065.02506.00065.05013.00065.07519v.01009c0,.02507,0,.05013.00065.0752v.00911c0,.02507,0,.04948.00065.07455v.00911l.00065.08106v.00423l.00131.08138v.00553l.0013.07975v.00814l.0013.07715v.01074c.00065.02442.0013.05111.0013.07552l.00065.01172c0,.02539.00065.05046.00131.07585v.01074l.002.07617v.01107l.00195.07552.00065.01237.002.07585v.00976c.00065.02637.0013.05176.0026.0778v.00847c.00065.02636.0013.05306.0026.07942v.00716l.00261.07943v.00847l.00325.08007v.00391l.00261.084.00065.00163c.002.057.00391.113.00651.17025v.00358l.00391.08431v.0026l.00325.08529.00065.00163.00391.085v.0026l.0039.08366v.00423l.00456.08366v.00326c.0013.02832.00261.05631.00456.08463v.00228c.00325.05729.00586.11426.00911.17188l.00065.0039.00456.08464v.0013a47.86558,47.86558,0,0,0,4.04427,16.41537,10.66677,10.66677,0,0,0,19.54037-8.5612c-4.64844-10.609-1.29167-18.39,1.123-22.08431a21.30335,21.30335,0,0,1,17.02735-9.67513c.66276.07,1.39127.13476,1.80859.15332.319.01432.63607.02116.95378.02116a21.33381,21.33381,0,0,0,20.13867-14.31511,10.64485,10.64485,0,0,1,9.95443-7.20963h0a10.67888,10.67888,0,0,1,10.66666,10.66666v32a21.62021,21.62021,0,0,1-.403,4.16993,10.66664,10.66664,0,1,0,20.931,4.12337q.12207-.61816.22591-1.24284l.00325-.02214.00391-.02311.00716-.04362.002-.012c.00325-.01791.00586-.03516.00846-.05306l.0026-.0127.00847-.05436.0013-.00586.00976-.0612v-.00065a42.91065,42.91065,0,0,0,.50847-5.31706v-.00292l.0026-.06316v-.01139l.002-.05729v-.01074l.002-.05567v-.0153l.002-.05208v-.01823c.00065-.016.0013-.03223.0013-.04785l.00065-.02148.00131-.04753.00065-.01953.00065-.0472.00065-.02246.0013-.04493v-.02376l.0013-.04232v-.02636l.00131-.04134v-.027l.00065-.03939.00065-.02832.00065-.04069.00065-.027v-.04l.00065-.02767.00065-.04134v-.02637l.00065-.04231v-.02507l.00065-.04329v-.02507l.00066-.04069v-.0957l.00065-.03972v-.16341h0v-32a31.99993,31.99993,0,0,0-32-32Z"/>
      </g>
      <g>
        <path class="cls-13" d="M213.33333,362.66634a63.47085,63.47085,0,0,0-21.99218,4.1237,53.15654,53.15654,0,0,0-52.67448-46.79037,51.53915,51.53915,0,0,0-13.337,1.74882,29.51625,29.51625,0,0,1-29.47538-8.72126c-13.80253-15.59652-38.82064-20.994-62.54532-3.3946-7.80117,5.78706-11.97579,15.25574-11.97576,24.969l.00009,44.8672c.00005,28.11928,19.10256,47.19746,42.66668,47.19746H212.22747c41.2585,0,43.41731-63.32257,2.16422-63.99142Q213.86354,362.66636,213.33333,362.66634Z"/>
        <path class="cls-14" d="M64.00065,298.66667c-9.55859-.00033-19.86588,3.14941-29.96484,10.43392q-.36329.26269-.72657.5319c-7.80143,5.78711-11.97591,15.25586-11.97591,24.96907v45.03972l.00065.03352v.138l.00066.03971v.04525l.00065.041v.0459l.00065.03939v.04818l.00065.03711.00065.04785.00065.04v.04524l.00065.03972c.00065.01627.00065.03287.00065.04882l.00065.03711c0,.02116.00065.04265.00131.06381v.02083l.0013.084.00065.03451.0013.05208.00065.03451.00065.05045.00065.03646.00131.05013.00065.03679.0013.04655.00065.042.0013.04362.00065.04036.00131.04623.0013.03808c0,.01628.00065.03255.0013.0485l.00065.03711c.00065.01563.0013.03158.0013.0472l.00131.03842.0013.04752.0013.03776c.00065.01758.0013.03516.0013.05241l.0013.03223.00261.083.0013.0358.00195.04818.0013.042.00131.0433.0013.03971.002.04525.0013.04036.002.04427.0013.04.002.0446.002.04069.002.04525.0013.0371.002.04851.002.03776.002.04394.002.04134.00131.03939.0026.04623.0013.03645.00261.04623.0013.02995c.002.03515.00325.07031.00521.10547l.0013.029.0026.04817.002.03516.002.04492.0026.04069.002.043.0026.03939.0026.04525.002.03841.0026.04687.002.03451.00261.0485.0026.03613.00261.0472.00195.03451.00326.0485.002.03646.00325.04687.002.03451.00325.04818.002.0319c.0026.04329.00585.08463.00846.12793v.00163l.00391.05859.002.02409.0039.05371.002.029.00325.05339.00261.029c.00065.0166.002.03418.00325.05078l.00261.0332.00325.04818.00261.03483.0039.04785.00261.03418.0039.04883.002.03288.0039.04915.00261.03255.0039.05046.00261.02832.0039.054.002.01661c.0052.0677.01106.13574.01627.20312l.002.02116.00455.05078.00261.03255.00455.04981.00261.0306.00456.05273.0026.02865c.002.0179.00325.0345.00456.05241l.0026.02929.00521.05241.0026.02832.00456.05436.0026.02377.00521.05826.002.02051.00586.06088.0013.01529c.0026.02116.00456.0446.00651.06609v.00065c.01041.10123.02018.20442.0306.30533l.0013.00912.00651.06641.00195.014.00651.06348.002.0166c.00195.02116.0039.04167.00651.06283l.002.01757.00651.0599.002.02181c.00261.02116.00456.03841.00651.05957l.002.0179c.0026.02116.00521.04167.00716.06283l.00195.014c.002.02278.00456.04459.00716.06738l.00065.00456c.01758.154.03516.307.054.46061v.0026l.00846.068.00131.01334.00846.06511.0013.013c.00326.02279.00521.04264.00847.0651l.002.01433.00781.06575.0013.01074.00912.068.0013.00911c.0026.02409.00586.04688.00911.071v.00032c.02344.18.04688.35872.07227.53776v.00163c.00716.05111.01432.09993.02148.15137l.00066.00325c.04361.307.08919.61035.138.91439v.00032a52.22562,52.22562,0,0,0,1.96484,8.13379l.00065.00033c.06055.18424.1224.36719.1849.55046v.00032l.02148.06185.00326.00944.01953.05729.00521.014.01888.055.0052.0153.01888.05339.00652.01823c.00585.01725.01171.03515.01822.05208l.00521.01595.01953.05469.00456.013.02018.05762.002.00488c.02994.08528.05989.16862.09049.25358l.00586.01627.01628.04558.00911.02506.01693.04525.00846.02507.01563.04264.01106.029.01433.04.01172.03125.01367.03743.01237.03451.01367.03613.01367.03679.01172.03125.01628.04362.00976.027.02018.05209.00586.01725c.00912.02311.01758.0459.02605.06934l.00065.0013.05468.1442.00456.012c.00781.01985.01563.04.02279.05989l.00521.013.02213.057.00651.0179.02149.05437.00586.01595.02213.05729.00456.012c.00846.02051.01627.04069.02409.0612l.0039.01009.02409.0625.00391.00879q.16992.43359.34765.862a10.66662,10.66662,0,1,0,19.70508-8.17415,32.69388,32.69388,0,0,1-2.32226-12.57585V334.60156c0-3.29883,1.2845-6.30143,3.35221-7.83528C52.07161,322.27637,58.12174,319.99967,64,320h0a21.09218,21.09218,0,0,1,14.52539,5.76921,10.66664,10.66664,0,1,0,14.63737-15.51954,42.33878,42.33878,0,0,0-26.401-11.49479l-.00391-.00032-.06054-.00358-.00651-.00065-.05925-.00359-.00716-.00032c-.12761-.00781-.25391-.015-.38216-.02181l-.00651-.00033-.05664-.0026L66.168,298.721l-.05339-.00261-.01562-.001-.05208-.00228-.015-.00065-.05208-.00261-.01433-.00065-.05468-.0026h-.002q-.126-.00537-.252-.01042l-.01107-.00032-.05078-.002-.01888-.00065-.04948-.00163-.01758-.00065-.05078-.002-.01692-.00032-.05144-.002-.015-.00032-.05273-.00163-.013-.00033c-.06054-.00195-.11979-.00358-.18033-.0052h-.00717l-.04492-.00131-.02539-.00065-.04232-.001-.02734-.00066-.041-.001-.02865-.00065-.04037-.00065-.03059-.00066-.03776-.00065-.03191-.00065-.03906-.00065-.03125-.00065-.03776-.00032-.03125-.00066-.06836-.001-.03776-.00033-.03385-.00032L64.457,298.669l-.03581-.00033-.03515-.00033-.03451-.00032-.0358-.00033H64.2819l-.03841-.00032h-.0319l-.03906-.00033h-.03125l-.04493-.00032h-.0957Z"/>
        <path class="cls-10" d="M206.19792,405.333h-128a10.66667,10.66667,0,1,0,0,21.33333h128a10.66667,10.66667,0,0,0,0-21.33333Z"/>
        <path class="cls-14" d="M149.95312,321.5166a10.66821,10.66821,0,0,0-2.83463,20.95085,31.8178,31.8178,0,0,1,23.05078,26.94271,21.333,21.333,0,0,0,28.53255,17.403,42.73485,42.73485,0,0,1,15.29558-2.80794h.04817c3.84505.0625,7.55469.95833,8.66146,7.03971a10.66645,10.66645,0,1,0,20.98828-3.819,33.1816,33.1816,0,0,0-2.34635-7.62923l-.00195-.00391-.01433-.03255-.00065-.002-.07682-.16862-.00326-.00716-.013-.029-.0039-.00782-.013-.028-.00326-.00781c-.01432-.03191-.0293-.06381-.04427-.09538l-.0013-.00358-.013-.027-.00521-.01107-.01172-.02637-.00456-.00911-.013-.028-.00325-.00652-.04493-.09505-.00195-.00455-.01237-.02572-.00586-.01237-.01172-.02441-.00586-.01237-.01172-.02442-.0052-.012-.043-.08822-.00326-.00749-.01107-.02278-.00781-.01595-.00976-.02019-.00912-.01822-.00911-.01954-.00912-.01822-.00976-.01954-.00912-.0192-.01367-.02832-.013-.02572-.00716-.0153-.01172-.02278-.00781-.01661-.01042-.02115-.00846-.01726-.01042-.02083-.00846-.01725-.013-.02507-.00586-.01237c-.00716-.01334-.01172-.02311-.01823-.03678l-.00586-.0114-.01432-.02766-.00586-.01172-.01237-.02539-.00782-.015-.01237-.02441-.00651-.013-.01627-.0319-.00261-.00554-.02018-.03906-.00325-.00586-.01563-.0306-.00716-.01465-.01237-.02409-.00716-.01334-.01367-.02637-.00586-.01172-.01628-.0319-.00325-.00521-.02019-.03971v-.00033l-.02018-.03841L240.541,377.93l-.01693-.03222-.00456-.00879-.01562-.02962-.00521-.00977-.01563-.0306-.00455-.00749c-.01368-.027-.026-.05045-.04037-.07714l-.00391-.00619-.01757-.0332-.00326-.00619-.01693-.0319-.00455-.00814-.01823-.03418-.002-.00358-.04231-.07845-.002-.00358-.01823-.03385-.00455-.00847-.01758-.03157-.00326-.00586-.02018-.03744v-.00032l-.06575-.11914-.00065-.00163-.02019-.03646-.0026-.00423c-4.222-7.59733-11.72591-13.30859-22.60872-14.39388l-.002-.00033c-.28581-.02832-.57161-.05338-.86133-.07552h-.0026l-.05469-.00423-.0026-.00032c-.07748-.00554-.15235-.01107-.22982-.01628l-.00521-.00033-.05208-.00358-.00586-.00032c-.07747-.00521-.15039-.00977-.22852-.01465l-.00716-.00033-.05013-.00293-.00781-.00065-.04883-.0026-.00911-.00065c-.03907-.00228-.07422-.00423-.11328-.00619l-.00586-.00032-.05144-.00293-.00911-.00033-.04622-.0026-.01237-.00065-.04883-.00228-.00651-.00033c-.03972-.00195-.07683-.0039-.11654-.00553h0l-.05534-.0026-.01172-.00066-.04362-.002-.015-.00065-.043-.00163-.01367-.00065c-.03711-.00163-.07617-.00325-.11328-.00456l-.00651-.00032-.04948-.002-.01563-.00033-.03906-.00163-.01888-.00065-.04036-.0013-.01563-.00065-.04492-.00163-.01107-.00032-.05729-.00163-.00326-.00033-.05273-.00163-.01367-.00032-.04427-.0013-.01367-.00033-.04232-.0013-.01693-.00033-.04492-.0013h-.01042l-.11458-.00293-.015-.00032-.03906-.00065-.02213-.00066-.03581-.00065-.02083-.00032-.03711-.00065-.01888-.00033-.056-.001h-.069a64.65861,64.65861,0,0,0-22.65951,3.9974l-.015.00553-.09245.03353-.1276.04688-.00651.00228c-.0267.00976-.054.01953-.08073.02962l-.00912-.07129-.0026-.02214-.00586-.04882-.00326-.0267-.00651-.04655-.0026-.02506-.00716-.05208-.00261-.01954c-.0026-.02246-.00586-.04785-.00911-.07031l-.002-.01692-.00716-.05469-.00325-.02344-.00651-.04818-.00326-.02636-.00651-.0459-.00325-.02539-.01953-.14226-.00261-.01692-.00716-.05436-.00326-.02279-.00716-.04916-.00325-.02408-.00847-.05957-.0013-.00944c-.0039-.02539-.00716-.04786-.01041-.07357l-.00131-.00879-.00911-.06283-.00326-.01985-.00716-.05078-.00325-.02377-.00782-.05143-.00325-.01986-.02149-.1442-.002-.01237-.00846-.0586-.00326-.0205-.00846-.05241-.0026-.01953c-.00326-.01921-.00651-.03907-.00912-.05827l-.002-.01335c-.00781-.04785-.015-.09538-.02279-.1429l-.00325-.02116-.00847-.05176-.00325-.02083-.00847-.05371-.00325-.01758-.01042-.06771-.00065-.00358-.01172-.07194-.00325-.0166-.00912-.055-.00325-.02019-.00847-.05143-.0039-.02279-.00847-.05143-.00325-.0192c-.00391-.02377-.00781-.04688-.01237-.07064l-.00065-.00586-.01172-.06576-.00261-.0179c-.00325-.01725-.00651-.03483-.00911-.05241l-.00391-.02213-.00911-.05339-.00326-.01725c-.0039-.02051-.00716-.04037-.01041-.06087l-.002-.01075-.013-.07129-.002-.013-.01042-.05826-.0039-.02019-.00912-.0511-.0039-.02084-.00977-.05306-.00325-.01888c-.00847-.04752-.01693-.09375-.026-.141l-.00325-.01758-.00977-.05468-.0039-.01986-.00912-.04948-.00455-.02344c-.00391-.01888-.00717-.03711-.01042-.056l-.00261-.01367-.01367-.07161-.00195-.00782-.01172-.06184-.00391-.02019-.00976-.05013-.00456-.02311c-.00325-.01888-.00651-.0345-.01042-.05338l-.0026-.0153c-.00911-.0472-.01888-.09636-.02865-.14356l-.0026-.01237c-.00325-.01888-.00781-.03906-.01107-.05794l-.0039-.0179c-.00391-.01888-.00782-.03777-.01107-.05665l-.00326-.01432-.013-.0651-.0013-.00586-.0293-.14356-.00325-.01692-.01172-.054-.00391-.01855-.01106-.055-.00326-.01627-.03-.14193-.0026-.01172-.013-.0599-.00326-.01562-.01172-.056-.0039-.01628-.013-.06185-.002-.00846-.01562-.07259-.00065-.002-.015-.068-.00325-.0153c-.00391-.01855-.00781-.03711-.01237-.05566l-.00391-.01823-.01237-.05469-.00325-.01595c-.00456-.02181-.00977-.04492-.015-.06673l-.00065-.00325c-.00586-.02474-.01041-.04786-.01627-.0726l-.002-.00716-.01367-.06217-.0039-.01693c-.00456-.01855-.00847-.03613-.01237-.055l-.00391-.0166-.01367-.0586-.00261-.01172c-.01041-.04655-.02213-.09472-.03255-.14127l-.00391-.01595-.013-.05436-.0039-.01823-.013-.05437-.00391-.01627c-.01107-.04818-.02213-.0944-.03385-.14225l-.00065-.00326-.01563-.06641-.00391-.01432c-.0039-.01855-.00846-.03711-.013-.05566l-.00455-.01726c-.00391-.01855-.00977-.04036-.01433-.05891l-.00195-.01042c-.01172-.04622-.02409-.09636-.03516-.14258l-.0026-.01042-.01432-.05859-.00456-.01725-.01367-.055-.00391-.015-.01562-.06348-.002-.00618-.01757-.07194-.002-.00553c-.00456-.02019-.01041-.04232-.01562-.06218l-.00456-.01953-.01367-.05143-.00456-.01921-.013-.05143-.00521-.01856-.03516-.13737-.0052-.01888-.013-.0498-.00586-.02246c-.00391-.0153-.00782-.03125-.01237-.04655l-.00586-.02344c-.00521-.01823-.00977-.03581-.01433-.054l-.00325-.013c-.00586-.02148-.013-.0472-.01823-.06868l-.00391-.015c-.00455-.01693-.01041-.03679-.01432-.05339l-.00586-.02181-.013-.0472-.00586-.02279-.01367-.05013-.00521-.01823c-.00521-.01985-.01042-.03971-.01627-.05957l-.00261-.00944c-.00586-.02278-.01172-.04524-.01823-.068l-.00456-.01562-.01432-.05339-.00586-.01986c-.00456-.01692-.00911-.03515-.01432-.05175l-.00456-.01628c-.00521-.01986-.00976-.03711-.01562-.057l-.00326-.013c-.013-.0459-.026-.09277-.03906-.13834l-.00456-.0153c-.00456-.01823-.00976-.03581-.015-.054l-.00521-.0179-.015-.05241-.00456-.01693c-.00651-.02279-.01237-.0446-.01953-.06738V358.598l-.02019-.07064-.00325-.01074-.01628-.05729-.0052-.0179-.01433-.04948-.00651-.02246-.015-.05111-.00456-.0153-.02018-.069-.00065-.0026-.01953-.06543-.00521-.01856-.01433-.04753-.00716-.02408-.01432-.04753-.00521-.01921-.02018-.06608v-.00032c-.00651-.02246-.01432-.04688-.02083-.06966l-.00456-.015-.01563-.05078-.00781-.026-.01237-.042-.00781-.02409c-.00456-.0166-.00912-.03093-.01432-.04753l-.00651-.0205c-.00651-.02279-.013-.04362-.02019-.06609l-.002-.00781-.01823-.05794-.00716-.02441-.01432-.04428-.00716-.02473-.013-.04167-.00846-.026-.01432-.0459-.00651-.02116-.02018-.0638-.00847-.026-.01237-.04-.00911-.028-.01237-.04-.00912-.027-.01367-.04459-.00651-.02018c-.00651-.01954-.01237-.03679-.01823-.05632l-.00651-.02018-.01823-.05567-.00846-.026-.013-.04-.00847-.02734-.01367-.04069-.00846-.027-.01367-.04069-.00782-.02539-.02148-.0638-.00521-.01693-.01693-.05045-.00781-.02312-.01367-.04264-.00846-.02572c-.00456-.01334-.00977-.02734-.01367-.04069l-.00912-.02734-.02083-.06055-.00065-.0026-.02214-.06608-.00716-.02149-.01563-.04557-.00781-.02409-.01432-.04166-.00846-.02539c-.00586-.01628-.01107-.0306-.01628-.04688l-.00651-.01888-.02279-.06543-.0039-.01269-.01823-.05306-.00782-.02214-.01562-.0446-.00846-.02408-.01563-.04493-.00716-.0205-.01823-.05372-.00521-.013c-.00716-.02246-.015-.04362-.02278-.06608l-.00586-.01627-.01628-.0472-.00977-.02637-.015-.042-.00781-.02311-.01693-.04753-.00651-.01823-.02344-.06576-.00325-.00781-.02018-.05761-.00782-.02149-.01627-.04525-.00782-.02148-.01627-.0446-.00912-.02441c-.0052-.01465-.01041-.03027-.01627-.04492L188.50391,355l-.02214-.06185-.01042-.02767-.01432-.03808-.01042-.0293-.013-.03516-.01106-.02962-.015-.04036-.00846-.02377-.02409-.06347-.00326-.00977-.02018-.05436-.00976-.02539-.01433-.03939-.01106-.029-.01368-.03613-.01041-.02832-.015-.03842-.01041-.02734-.02279-.0612-.00846-.02116-.01628-.04329-.00976-.02507-.01628-.042-.00912-.02441-.015-.03906-.01042-.027L188.14,354.03l-.00976-.02409-.02018-.05176-.01107-.0293-.01367-.03417-.01172-.03158-.01237-.03125-.01367-.03451-.013-.03255-.01107-.02864-.02361-.06022-.01155-.02865-.01432-.03613-.01172-.0293-.01367-.03451-.01172-.03027-.01432-.03548-.01172-.029-.01563-.03939-.01432-.03613-.01953-.04818-.01107-.02734-.01432-.03614-.013-.03222-.01237-.02995-.01367-.03353-.01237-.02962-.01368-.03451-.00846-.02083-.03125-.07552-.00911-.02181-.01628-.03972-.00912-.02246-.01627-.04-.00912-.02148-.01627-.04-.00847-.01953-.05989-.14388-.00586-.01432-.01758-.04167-.00976-.02213-.01628-.03939-.00912-.02214-.01692-.03971-.00521-.01237-.03385-.0791-.01172-.02735-.01433-.03483-.01172-.02636-.015-.03581-.01172-.027-.01562-.03646-.00912-.02018c-.01888-.0446-.03906-.09115-.05859-.13574l-.00977-.02344-.01562-.03613-.01237-.02767-.01432-.03288-.013-.02962-.015-.03516-.00846-.01823c-.01172-.02669-.02344-.05436-.03581-.08138l-.00651-.01595-.01693-.03841-.01107-.02507-.01692-.0371-.00912-.02181-.01823-.04037-.00911-.02018-.0306-.06869-.01237-.02767-.01562-.03418-.01172-.02669-.01628-.03646-.01107-.02441-.01692-.03776-.01107-.02376-.01628-.03679-.01041-.02213c-.01172-.02539-.02214-.04981-.03386-.07552l-.00911-.01921-.01823-.03971-.00912-.01986-.01758-.03906-.01106-.02442-.01693-.03678-.01042-.02181-.0625-.13574-.00846-.01791-.01953-.04166-.00846-.01823-.01889-.04069-.00911-.01888-.02018-.04362-.00065-.0013c-.02474-.05339-.04883-.10482-.07422-.15788l-.00521-.01042-.02214-.04687-.0052-.01107-.02214-.0472-.00456-.00879c-.0319-.068-.0651-.13737-.09765-.20508l-.00782-.01595-.02148-.04394-.00586-.012c-.00781-.01628-.015-.03092-.02213-.0472l-.002-.00325c-.02474-.05176-.04948-.10254-.07487-.154l-.00586-.01139-.02083-.04329-.00846-.01758c-.00717-.01367-.01433-.029-.02084-.04265l-.00586-.01171-.10286-.208-.00261-.00488-.02408-.04916-.00456-.00911c-.03451-.06836-.07031-.14-.10482-.20834l-.00325-.00683-.02539-.05013-.00261-.00489c-.00846-.01692-.01693-.0345-.026-.05143l-.0013-.00293c-.03646-.07161-.07292-.14388-.10938-.21517l-.00065-.001-.02734-.05339-.00065-.0013c-.04688-.0905-.09245-.179-.13933-.26921l-.0013-.0026q-.15429-.29591-.31315-.5905l-.0013-.00325-.02735-.05078-.0026-.00423q-.23047-.42824-.46875-.85189l-.00065-.00065a53.44407,53.44407,0,0,0-17.58529-18.69792l-.00065-.00032c-.06836-.04362-.13541-.08692-.20377-.13054l-.00066-.00032-.04947-.0319-.00261-.00131q-.126-.08057-.25325-.16048l-.00261-.00163-.05013-.03125-.0013-.0013q-.25585-.16015-.513-.31738l-.00326-.00195-.04817-.0293-.00651-.00391-.04753-.02929-.00195-.001c-.06706-.04069-.13347-.08106-.20052-.12142l-.01107-.00651-.041-.02474-.01627-.00977c-.06315-.03776-.125-.07487-.18815-.1123l-.015-.00879-.03971-.02344-.01628-.00976-.03971-.02344-.01693-.01009c-.04362-.02572-.08659-.05143-.13021-.07682l-.01692-.0101-.03646-.02115-.02149-.01237-.03645-.02149-.02084-.012-.03581-.02084-.01888-.01106c-.02929-.01726-.05859-.03418-.08854-.05144l-.0013-.00065-.03646-.02116-.02278-.013-.03256-.01888-.02669-.01562-.03255-.01856-.02214-.01237-.03711-.02148-.00716-.00423-.07682-.04362-.02669-.0153-.03125-.01791-.02735-.0153-.03125-.0179-.02734-.01562-.03125-.01758-.03451-.01921-.02278-.01334-.056-.03125-.02865-.01595-.0306-.01726-.02994-.0166-.02865-.01627-.0306-.01693-.0319-.01758-.02669-.015-.043-.02409-.03-.01628-.04427-.02441-.02083-.01172-.03842-.02116-.02539-.014-.03645-.02018-.02214-.012-.04362-.02377-.01758-.00976-.05924-.03255-.01432-.00749-.04428-.02409-.02408-.013-.03972-.02181-.01888-.01009-.04948-.02669-.01041-.00554-.12435-.06706-.015-.00781-.04557-.02441-.01888-.01009-.04362-.02344-.01953-.01009-.04753-.02539-.01237-.00684-.06054-.0319-.01433-.00749-.04948-.02636-.01367-.00717c-.01692-.00846-.0319-.0166-.04817-.02539l-.01628-.00846-.05013-.026-.01172-.00619c-.04232-.02246-.084-.04394-.1263-.06608l-.00781-.0039-.054-.028-.01432-.00749-.05079-.026-.01171-.00618-.056-.029-.00716-.00358c-.043-.02214-.08464-.04362-.12761-.06543l-.00911-.00489-.056-.02832-.00912-.00455-.05729-.029-.00651-.00325c-.06445-.03288-.12825-.0651-.19336-.098l-.00846-.00423-.056-.028-.00977-.00488a52.41474,52.41474,0,0,0-9.52864-3.654,10.68074,10.68074,0,0,0-2.80079-.37533Z"/>
        <rect class="cls-14" x="21.33333" y="319.99967" width="64" height="42.66667" rx="21.33331" ry="21.33331"/>
        <rect class="cls-14" x="106.66667" y="341.33301" width="64" height="42.66667" rx="21.33331" ry="21.33331"/>
      </g>
      <g>
        <path class="cls-15" d="M468.57552,212.57552l-62.48437-62.48437A75.42472,75.42472,0,0,0,299.42448,256.75781l9.90885,9.90886L158.16927,417.82943a30.16989,30.16989,0,0,0,42.66667,42.66666L224,437.33333,234.66667,448,251.582,464.91536a15.08568,15.08568,0,0,0,21.33333,0v-.0013a15.08411,15.08411,0,0,0,0-21.332l-6.23958-6.23958a30.16989,30.16989,0,1,1,42.66667-42.66667l6.23958,6.23958a15.08568,15.08568,0,0,0,21.33333,0v-.0013a15.08411,15.08411,0,0,0,0-21.332L320,362.66667,309.33333,352,352,309.33333l9.90885,9.90886a75.42376,75.42376,0,0,0,106.66537,0l.0013-.0013A75.42453,75.42453,0,0,0,468.57552,212.57552ZM438.405,289.07161a32.75691,32.75691,0,0,1-46.32683,0l-62.48437-62.48437a32.758,32.758,0,0,1,46.32682-46.32682L438.405,242.74479a32.75692,32.75692,0,0,1,0,46.32682Z"/>
        <path class="cls-16" d="M299.20833,206.58333a10.09087,10.09087,0,0,1-1.47916-.10416,10.656,10.656,0,0,1-9.10417-12.02084,64.03959,64.03959,0,0,1,18.33333-36.82291c24.5-24.45834,67.08334-24.45834,91.58334,0l5.6875,5.6875a10.66553,10.66553,0,1,1-15.08334,15.08333l-5.6875-5.6875c-16.41666-16.39583-45-16.39583-61.41666,0A42.84988,42.84988,0,0,0,309.75,197.375,10.659,10.659,0,0,1,299.20833,206.58333Z"/>
        <path class="cls-17" d="M461.0332,209.4515a10.66625,10.66625,0,0,0-7.54231,18.20914A54.09172,54.09172,0,0,1,415.24089,320a54.61867,54.61867,0,0,1-9.47527-.82992,10.66671,10.66671,0,0,0-3.73307,21.00424c.08464.015.16862.02962.25391.04443h0l.10742.01855.01107.002.09765.01676.01563.00261.09375.016.01758.00293.0944.01578.015.00261.09961.0166.00912.00146c.18424.0306.37044.06055.55468.08969l.01172.00195.09636.01514.02018.00325.08919.01384.02279.00358.08594.01318.026.00391.08528.013.02344.00358.08594.013.02474.00374.08724.013.02148.00326.0944.014.015.00211c.10937.01628.222.03255.332.04818l.01107.00163.09635.01367.02474.00358.08464.01188.028.00374.07943.01107.03255.00456.07682.01058.03386.00456.07487.01025.03385.00456.07878.01058.02994.00406.082.01091.02669.00342.0957.01253.01237.00163c.07357.0096.14779.0192.222.02864l.00716.001.10156.01286.02344.00293.08463.01058.0306.00374.07813.00977.03515.00423.07292.009.03646.00439.07292.00879.03776.00456.07226.00863.03581.00423.07422.00879.03515.00407.08008.00927.02735.00326.0944.01074.01432.00163c.07422.00846.14779.01676.22135.0249l.013.00147.09571.01058.02669.00293.08138.00879.03385.00358.07487.008.03711.00407.071.00749.03906.00407.07161.00748.03711.00375.07162.00732.03776.00391.07422.00748.0345.00342.08073.00814.02735.00277.09244.009.01758.00179.11.01058.00651.00049.10221.00976.0293.00277.07877.00749.03776.00341.071.00651.03906.00359.07031.00634.04037.00358.06836.00619.04036.00342.06966.00618.03972.00342.071.00618.03776.0031.07162.006.03906.00325.07682.00651.02995.00245.10221.0083.00651.00049.112.00895.00716.00065.10026.00781.0306.00244.07943.006.0332.00245.07487.00569.03841.00293.07032.00521.04166.00293.06641.00488.043.00309.06771.00473.041.00292.06966.00489.03842.0026.07682.00521.03125.00212.09114.00618.01693.001c.07292.00488.14909.00976.222.01432l.01627.001.0918.00569.0332.00212.07487.00439.03972.00245.069.00406.041.00228.069.00407.041.00228.06966.00391.03776.00211.07161.00391.03972.00211.06966.00375.03906.002.07357.00375.03581.002.08463.00423.02344.00114.10937.00537.01237.00049.09766.00456.028.0013.08072.00374.03516.00147.07487.00341.03711.00147.07031.00309.04232.00163.06706.00277.04362.00179.06445.0026.04492.00163.06641.0026.04167.00163.06835.00244.041.00147.07422.0026.03385.00114.09766.00342.01042.00032.11067.00342.01563.00049.0931.00293.0358.001.07227.00211.04167.00114.06771.00195.04362.00114.0651.00163.04427.00114.06445.00163.04623.00114.06445.00146.043.001.06771.00146.04166.00082.071.00146.03711.00082.07552.0013.0345.00065c.07162.0013.14584.00244.21745.00358l.0293.00049.07942.00114.03972.00049.06836.00081.04427.00049.0651.00081.04623.00049.06119.00049.04818.00049.06185.00048.04753.00033.06119.00049.04753.00016.0625.00033.04688.00032.06315.00017.04492.00016.071.00016.03776.00016h.10808a75.398,75.398,0,0,0,53.33463-128.75781h0a10.63307,10.63307,0,0,0-7.54232-3.124Z"/>
        <path class="cls-18" d="M245.33333,437.33333l13.94141-13.9414c-2.53906-9.97526-.40625-20.91016,7.401-28.71615,7.80729-7.80729,18.74089-9.9401,28.71615-7.401l13.9414-13.94141A15.08494,15.08494,0,0,0,288,352l-64,64a15.08494,15.08494,0,0,0,21.33333,21.33333Z"/>
        <path class="cls-17" d="M159.778,355.1242h220.0258a15.08493,15.08493,0,0,1,15.08493,15.08493v0a15.08494,15.08494,0,0,1-15.08494,15.08494H159.77794A15.08492,15.08492,0,0,1,144.693,370.20917v0A15.08493,15.08493,0,0,1,159.778,355.1242Z" transform="translate(-182.75748 299.20269) rotate(-45)"/>
      </g>
    </g>
  </g>
</svg>
